# xmcd CD database file
#
# Track frame offsets:
#	150
#	11422
#	29763
#	43049
#	57209
#	71592
#	83785
#	101383
#	122035
#	137162
#	147227
#	164649
#	181258
#
# Disc length: 2637 seconds
#
# Revision: 3
# Processed by: cddbd v1.5.2PL0 Copyright (c) Steve Scherf et al.
# Submitted via: CDex 1.70beta2
#
DISCID=b40a4b0d
DTITLE=Pussycat - First Of All
DYEAR=1976
DGENRE=Nederpop
TTITLE0=Georgie
TTITLE1=Pasadena
TTITLE2=Boulevard De La Madeleine
TTITLE3=What Did They Do To The People
TTITLE4=Mexicali Lane
TTITLE5=Take Me
TTITLE6=Smile
TTITLE7=Mississippi
TTITLE8=Delaney
TTITLE9=Do It
TTITLE10=Help Me Living On
TTITLE11=Just A Woman
TTITLE12=Bad Boy
EXTD=YEAR: 1976
EXTT0=
EXTT1=
EXTT2=
EXTT3=
EXTT4=
EXTT5=
EXTT6=
EXTT7=
EXTT8=
EXTT9=
EXTT10=
EXTT11=
EXTT12=
PLAYORDER=
